<svg width="32" height="32" viewBox="0 0 32 32" fill="none" xmlns="http://www.w3.org/2000/svg">
  <rect width="32" height="32" rx="8" fill="#0F172A"/>
  <path d="M8 10.5C8 9.67157 8.67157 9 9.5 9H22.5C23.3284 9 24 9.67157 24 10.5V21.5C24 22.3284 23.3284 23 22.5 23H9.5C8.67157 23 8 22.3284 8 21.5V10.5Z" fill="#1E293B"/>
  <path d="M11 12.5C11 12.2239 11.2239 12 11.5 12H20.5C20.7761 12 21 12.2239 21 12.5V14.5C21 14.7761 20.7761 15 20.5 15H11.5C11.2239 15 11 14.7761 11 14.5V12.5Z" fill="#38BDF8"/>
  <path d="M11 17.5C11 17.2239 11.2239 17 11.5 17H15.5C15.7761 17 16 17.2239 16 17.5V19.5C16 19.7761 15.7761 20 15.5 20H11.5C11.2239 20 11 19.7761 11 19.5V17.5Z" fill="#F8FAFC"/>
  <path d="M17 17.5C17 17.2239 17.2239 17 17.5 17H20.5C20.7761 17 21 17.2239 21 17.5V19.5C21 19.7761 20.7761 20 20.5 20H17.5C17.2239 20 17 19.7761 17 19.5V17.5Z" fill="#22C55E"/>
</svg>
